<?xml version="1.0" encoding="UTF-8"?>
<svg viewBox="0 0 550 128" version="1.1" xmlns="http://www.w3.org/2000/svg" xmlns:xlink="http://www.w3.org/1999/xlink">
    <title>haxall-logo copy</title>
    <defs>
        <linearGradient x1="100%" y1="50%" x2="0%" y2="50%" id="linearGradient-1">
            <stop stop-color="#2CC2F0" offset="0%"></stop>
            <stop stop-color="#148FDC" offset="100%"></stop>
        </linearGradient>
        <linearGradient x1="100%" y1="50%" x2="0%" y2="50%" id="linearGradient-2">
            <stop stop-color="#2CC2F0" offset="0%"></stop>
            <stop stop-color="#148FDC" offset="100%"></stop>
        </linearGradient>
        <linearGradient x1="100%" y1="50%" x2="0%" y2="50%" id="linearGradient-3">
            <stop stop-color="#2CC2F0" offset="0%"></stop>
            <stop stop-color="#148FDC" offset="100%"></stop>
        </linearGradient>
    </defs>
    <g id="haxall-logo-copy" stroke="none" stroke-width="1" fill="none" fill-rule="evenodd">
        <path d="M171.541063,120 L171.541063,75.3076172 C171.541063,71.5634766 172.635302,68.5180664 174.823778,66.1713867 C177.012255,63.824707 179.793993,62.6513672 183.168993,62.6513672 C186.596727,62.6513672 189.404833,63.824707 191.593309,66.1713867 C193.781786,68.5180664 194.876024,71.5634766 194.876024,75.3076172 L194.876024,75.3076172 L194.876024,120 L219.95122,120 L219.95122,77.6806641 C219.95122,65.4990234 217.222216,55.875 211.764208,48.8085938 C206.3062,41.7421875 198.989305,38.2089844 189.813524,38.2089844 C186.38579,38.2089844 183.116259,38.7758789 180.00493,39.909668 C176.893602,41.043457 174.072313,42.7441406 171.541063,45.0117188 L171.541063,45.0117188 L171.541063,6.7265625 L146.386766,6.7265625 L146.386766,120 L171.541063,120 Z M267.813524,121.107422 C269.395555,121.107422 271.109423,121.001953 272.955126,120.791016 C274.800829,120.580078 276.752001,120.263672 278.808641,119.841797 L278.808641,119.841797 L278.808641,93.5800781 C276.330126,94.3710938 274.32622,94.9248047 272.796923,95.2412109 C271.267626,95.5576172 269.922899,95.7158203 268.762743,95.7158203 C263.963915,95.7158203 260.180223,94.265625 257.411669,91.3652344 C254.643114,88.4648438 253.258837,84.5625 253.258837,79.6582031 C253.258837,74.9121094 254.577196,71.0756836 257.213915,68.1489258 C259.850634,65.222168 263.278368,63.7587891 267.497118,63.7587891 C272.612352,63.7587891 276.461962,65.2617188 279.045946,68.2675781 C281.62993,71.2734375 282.921923,75.7294922 282.921923,81.6357422 L282.921923,81.6357422 L282.921923,120 L307.997118,120 L307.997118,85.8047722 C307.980085,78.8633983 307.703483,73.7691317 307.166552,70.5219727 C306.612841,67.1733398 305.703173,64.1279297 304.437548,61.3857422 C301.168016,54.2138672 296.26372,48.5581055 289.724657,44.418457 C283.185595,40.2788086 275.881884,38.2089844 267.813524,38.2089844 C256.106493,38.2089844 246.456102,42.1113281 238.862352,49.9160156 C231.268602,57.7207031 227.471727,67.6347656 227.471727,79.6582031 C227.471727,91.6816406 231.268602,101.595703 238.862352,109.400391 C246.456102,117.205078 256.106493,121.107422 267.813524,121.107422 Z M314.619188,120 C322.10747,120 328.606981,118.879395 334.117723,116.638184 C339.628466,114.396973 344.466845,110.929688 348.63286,106.236328 C352.324266,110.824219 357.017626,114.265137 362.712938,116.559082 C368.408251,118.853027 375.052782,120 382.646532,120 L382.646532,120 L383.279345,120 L383.279345,95.5576172 L381.143602,95.5576172 C375.184618,95.5576172 370.438524,94.1469727 366.905321,91.3256836 C363.372118,88.5043945 361.605516,84.7207031 361.605516,79.9746094 C361.605516,75.2285156 363.372118,71.418457 366.905321,68.5444336 C370.438524,65.6704102 375.184618,64.2333984 381.143602,64.2333984 L381.143602,64.2333984 L383.279345,64.2333984 L383.279345,39.7910156 L382.646532,39.7910156 C374.894579,39.7910156 368.250048,40.9248047 362.712938,43.1923828 C357.175829,45.4599609 352.48247,48.9667969 348.63286,53.7128906 C344.361376,48.8613281 339.549364,45.328125 334.196825,43.1132812 C328.844286,40.8984375 322.318407,39.7910156 314.619188,39.7910156 L314.619188,39.7910156 L313.907274,39.7910156 L313.907274,64.2333984 L316.20122,64.2333984 C322.212938,64.2333984 326.985399,65.6704102 330.518602,68.5444336 C334.051805,71.418457 335.818407,75.2285156 335.818407,79.9746094 C335.818407,84.7207031 334.051805,88.5043945 330.518602,91.3256836 C326.985399,94.1469727 322.212938,95.5576172 316.20122,95.5576172 L316.20122,95.5576172 L313.907274,95.5576172 L313.907274,120 L314.619188,120 Z M427.079149,121.107422 C428.66118,121.107422 430.375048,121.001953 432.220751,120.791016 C434.066454,120.580078 436.017626,120.263672 438.074266,119.841797 L438.074266,119.841797 L438.074266,93.5800781 C435.595751,94.3710938 433.591845,94.9248047 432.062548,95.2412109 C430.533251,95.5576172 429.188524,95.7158203 428.028368,95.7158203 C423.22954,95.7158203 419.445848,94.265625 416.677294,91.3652344 C413.908739,88.4648438 412.524462,84.5625 412.524462,79.6582031 C412.524462,74.9121094 413.842821,71.0756836 416.47954,68.1489258 C419.116259,65.222168 422.543993,63.7587891 426.762743,63.7587891 C431.877977,63.7587891 435.727587,65.2617188 438.311571,68.2675781 C440.895555,71.2734375 442.187548,75.7294922 442.187548,81.6357422 L442.187548,81.6357422 L442.187548,120 L467.262743,120 L467.262743,86.4609375 C467.262743,79.1835938 466.985887,73.8706055 466.432177,70.5219727 C465.878466,67.1733398 464.968798,64.1279297 463.703173,61.3857422 C460.433641,54.2138672 455.529345,48.5581055 448.990282,44.418457 C442.45122,40.2788086 435.147509,38.2089844 427.079149,38.2089844 C415.372118,38.2089844 405.721727,42.1113281 398.127977,49.9160156 C390.534227,57.7207031 386.737352,67.6347656 386.737352,79.6582031 C386.737352,91.6816406 390.534227,101.595703 398.127977,109.400391 C405.721727,117.205078 415.372118,121.107422 427.079149,121.107422 Z M504.813524,120 L504.813524,6.7265625 L479.184618,6.7265625 L479.184618,120 L504.813524,120 Z M543.313524,120 L543.313524,6.7265625 L517.684618,6.7265625 L517.684618,120 L543.313524,120 Z" id="haxall" fill="#97A6BA" fill-rule="nonzero"></path>
        <g id="Group" transform="translate(5.000000, 38.000000)" fill-rule="nonzero">
            <g id="Path">
                <path d="M86.1386719,1 C110.031198,1 128,18.4254068 128,41 C128,63.5441752 110.445061,81.6349835 87.2059433,81.9945453 L86.5,82 L0,82 L0,75 L86.5,75 C106.1949,75 121,59.9330991 121,41 C121,22.3403199 106.21249,8 86.1386719,8 C65.5104827,8 52,21.1448225 52,41.5 C52,45.9160894 52.6549049,49.9025972 53.9535647,53.4757151 L54.1639643,54 C50.0139602,54 47.5442054,54 46.7546997,54 C45.5825424,50.1429541 45,45.9773587 45,41.5 C45,17.2351933 61.6868209,1 86.1386719,1 Z" fill="url(#linearGradient-1)"></path>
                <path d="M86.4201807,10 C105.188417,10 119,23.4661919 119,41.1216216 C119,58.7446463 105.518959,72.7180808 87.253742,72.9957872 L86.6987952,73 L0,73 L0,66 L86.6987952,66 C101.342461,66 112,55.0925165 112,41.1216216 C112,27.3724166 101.361544,17 86.4201807,17 C70.9376801,17 60.8975904,26.5868489 60.8975904,41.5 C60.8975904,46.2048613 61.8676434,50.2714011 63.7902503,53.7547889 C63.8536907,53.8622856 63.901271,53.9440226 63.9329912,54 C63.3490839,54 57.8602141,54 56.2114853,54 C54.6660781,50.1996295 53.8975904,46.0888419 53.8975904,41.5 C53.8975904,22.6466767 67.1421684,10 86.4201807,10 Z" fill="url(#linearGradient-2)"></path>
                <path d="M86.6063605,19 C100.245884,19 110,28.5341436 110,41.2432432 C110,53.9164614 100.494025,63.8006049 87.2055844,63.9970205 L0,64 L0,57 C56.8532865,57 85.7872039,57 86.8017525,57 C96.3935324,57 103,50.218789 103,41.2432432 C103,32.4363243 96.4151761,26 86.6063605,26 C76.4128051,26 69.9072276,31.8997846 69.7555661,41.1675796 L69.753,41.441 L69.7730248,41.8899948 C69.9933748,45.9208961 71.2699776,49.8175982 73.6368856,53.6232803 L73.9384302,54 C69.9794767,54 67.2978925,54 65.8936776,54 C64.0337316,50.1750595 62.9899565,46.2747595 62.7786645,42.1820143 L62.7547313,41.6145699 L62.7528556,41.5 C62.7528556,28.0459434 72.5437652,19 86.6063605,19 Z" fill="url(#linearGradient-3)"></path>
            </g>
        </g>
    </g>
</svg>